# xmcd CD database file
#
# Track frame offsets:
#	200
#	8137
#	37335
#	60047
#	93350
#	132627
#	157165
#
# Disc length: 2589 seconds
#
# Revision: 4
# Processed by: cddbd v1.5.2PL0 Copyright (c) Steve Scherf et al.
# Submitted via: CDex 1.51
#
DISCID=580a1b07
DTITLE=Amadeo Vives - Bohemios  [Zarzuela en un acte]  (Antoni Ros Marbà, Orquesta Sinfónica de Tenerife)
DYEAR=1993
DGENRE=Zarzuela
TTITLE0=Prélude
TTITLE1=Scène et chanson de Cosette
TTITLE2=Récit
TTITLE3=Scènes et choeur de bohèmes
TTITLE4=Quatuor et duo
TTITLE5=Intermède
TTITLE6=Final
EXTD=María Bayo\nLuis Lima\nCarlos Álvarez\nOrquesta Sinfónica de Tenerife\nAntoni Ros Marbá YEAR: 1993
EXTT0=
EXTT1=
EXTT2=
EXTT3=
EXTT4=
EXTT5=
EXTT6=
PLAYORDER=
